<svg xmlns="http://www.w3.org/2000/svg" xmlns:xlink="http://www.w3.org/1999/xlink" viewBox="0 0 56 53" version="1.1" x="0px" y="0px"><title>028 - Contact Info </title><desc>Created with Sketch.</desc><g stroke="none" stroke-width="1" fill="none" fill-rule="evenodd"><g fill="#000000" fill-rule="nonzero"><path d="M42.658,45.6 L33.22,39.308 C32.7977864,39.0293103 32.2323943,39.1210778 31.92,39.519 L29.172,43.052 C28.2814078,44.2127058 26.6739534,44.5439904 25.397,43.83 L24.889,43.551 C23.056,42.551 20.774,41.307 16.244,36.777 C11.714,32.247 10.469,29.965 9.47,28.131 L9.19,27.623 C8.47614397,26.3463513 8.80744487,24.7392439 9.968,23.849 L13.5,21.1 C13.8983661,20.7878678 13.9901937,20.2221054 13.711,19.8 L7.42,10.361 C7.13386799,9.93267955 6.56220735,9.80383603 6.12,10.068 L2.171,12.436 C1.32380513,12.9305362 0.700679789,13.7335402 0.432,14.677 C-0.865,19.4 0.226,27.67 12.787,40.232 C25.348,52.794 33.616,53.887 38.343,52.589 C39.2866282,52.3200769 40.0896582,51.696573 40.584,50.849 L42.951,46.9 C43.2157035,46.457879 43.0867708,45.8858226 42.658,45.6 Z"></path><path d="M55.45,0.018 L13.55,0.018 C13.4036393,0.0163766257 13.2627995,0.0738014449 13.1593005,0.177300452 C13.0558014,0.280799459 12.9983766,0.421639303 13,0.568 L13,15.126 L15.376,18.69 C16.2329117,19.9847401 15.9512942,21.7205834 14.729,22.678 L11.2,25.427 C10.8222676,25.7136152 10.712367,26.2341521 10.942,26.649 L11.23,27.174 C12.1482068,28.920304 13.2682017,30.5528049 14.567,32.038 L55.45,32.038 C55.7500068,32.04023 55.9956125,31.799983 56,31.5 L56,0.568 C56.0016234,0.421639303 55.9441986,0.280799459 55.8406995,0.177300452 C55.7372005,0.0738014449 55.5963607,0.0163766257 55.45,0.018 Z M27.429,18.359 L17.185,29.334 C16.8083418,29.7379963 16.1754963,29.7601582 15.7715,29.3835 C15.3675037,29.0068418 15.3453418,28.3739963 15.722,27.97 L25.966,17 C26.3426582,16.5960037 26.9755037,16.5738418 27.3795,16.9505 C27.7834963,17.3271582 27.8056582,17.9600037 27.429,18.364 L27.429,18.359 Z M34.5,17.576 C33.7793027,17.5793255 33.0771652,17.3476201 32.5,16.916 L15.786,4.242 C15.3458291,3.90676316 15.2607632,3.27817095 15.596,2.838 C15.9312368,2.39782905 16.5598291,2.31276316 17,2.648 L33.707,15.322 C34.1798403,15.66559 34.8201597,15.66559 35.293,15.322 L52.005,2.648 C52.4451709,2.3141439 53.0726438,2.4003291 53.4065,2.84050003 C53.7403561,3.28067096 53.6541709,3.90814386 53.214,4.242 L36.5,16.916 C35.9228348,17.3476201 35.2206973,17.5793255 34.5,17.576 Z M53.292,29.383 C53.0980488,29.5641223 52.8400583,29.6607256 52.5748453,29.6515351 C52.3096323,29.6423445 52.058948,29.5281139 51.878,29.334 L41.635,18.359 C41.2870132,17.951143 41.3225888,17.3414229 41.7156475,16.976804 C42.1087062,16.612185 42.7193775,16.6224173 43.1,17 L53.341,27.97 C53.7175141,28.3737741 53.6955801,29.006278 53.292,29.383 Z"></path></g></g></svg>