<svg xmlns:x="http://ns.adobe.com/Extensibility/1.0/" xmlns:i="http://ns.adobe.com/AdobeIllustrator/10.0/" xmlns:graph="http://ns.adobe.com/Graphs/1.0/" xmlns="http://www.w3.org/2000/svg" xmlns:xlink="http://www.w3.org/1999/xlink" version="1.1" x="0px" y="0px" viewBox="0 0 64 64" enable-background="new 0 0 64 64" xml:space="preserve"><metadata><sfw xmlns="http://ns.adobe.com/SaveForWeb/1.0/"><slices></slices><sliceSourceBounds height="16384" width="16389" x="-8165" y="-8160" bottomLeftOrigin="true"></sliceSourceBounds></sfw></metadata><g><g><path d="M58,5H6C5.448,5,5,5.448,5,6v24c0,0.552,0.448,1,1,1h52c0.553,0,1-0.448,1-1V6C59,5.448,58.553,5,58,5z M57,29H7V7h50V29z    "></path><path d="M16,33H6c-0.552,0-1,0.447-1,1v10c0,0.553,0.448,1,1,1h10c0.552,0,1-0.447,1-1V34C17,33.447,16.552,33,16,33z M15,43H7v-8    h8V43z"></path><path d="M16,47H6c-0.552,0-1,0.447-1,1v10c0,0.553,0.448,1,1,1h10c0.552,0,1-0.447,1-1V48C17,47.447,16.552,47,16,47z M15,57H7v-8    h8V57z"></path><path d="M30,33H20c-0.552,0-1,0.447-1,1v10c0,0.553,0.448,1,1,1h10c0.552,0,1-0.447,1-1V34C31,33.447,30.552,33,30,33z M29,43h-8    v-8h8V43z"></path><path d="M30,47H20c-0.552,0-1,0.447-1,1v10c0,0.553,0.448,1,1,1h10c0.552,0,1-0.447,1-1V48C31,47.447,30.552,47,30,47z M29,57h-8    v-8h8V57z"></path><path d="M58,33H34c-0.553,0-1,0.447-1,1v24c0,0.553,0.447,1,1,1h24c0.553,0,1-0.447,1-1V34C59,33.447,58.553,33,58,33z M57,57H35    V35h22V57z"></path></g></g></svg>